<svg width="164" height="118" viewBox="0 0 164 118" fill="none" xmlns="http://www.w3.org/2000/svg">
<path d="M13.68 83V48.92H0.24V41H36.84V48.92H23.4V83H13.68Z" fill="black"/>
<path d="M144.08 83.72C140.84 83.72 137.82 83.2 135.02 82.16C132.26 81.08 129.86 79.56 127.82 77.6C125.78 75.64 124.18 73.34 123.02 70.7C121.9 68.06 121.34 65.16 121.34 62C121.34 58.84 121.9 55.94 123.02 53.3C124.18 50.66 125.78 48.36 127.82 46.4C129.9 44.44 132.32 42.94 135.08 41.9C137.84 40.82 140.86 40.28 144.14 40.28C147.78 40.28 151.06 40.92 153.98 42.2C156.94 43.44 159.42 45.28 161.42 47.72L155.18 53.48C153.74 51.84 152.14 50.62 150.38 49.82C148.62 48.98 146.7 48.56 144.62 48.56C142.66 48.56 140.86 48.88 139.22 49.52C137.58 50.16 136.16 51.08 134.96 52.28C133.76 53.48 132.82 54.9 132.14 56.54C131.5 58.18 131.18 60 131.18 62C131.18 64 131.5 65.82 132.14 67.46C132.82 69.1 133.76 70.52 134.96 71.72C136.16 72.92 137.58 73.84 139.22 74.48C140.86 75.12 142.66 75.44 144.62 75.44C146.7 75.44 148.62 75.04 150.38 74.24C152.14 73.4 153.74 72.14 155.18 70.46L161.42 76.22C159.42 78.66 156.94 80.52 153.98 81.8C151.06 83.08 147.76 83.72 144.08 83.72Z" fill="black"/>
<path d="M81.4726 94.2402C76.1606 94.2286 71.2665 93.3859 66.7901 91.7121C62.3779 89.9744 58.5112 87.5339 55.1901 84.3907C51.933 81.2475 49.381 77.5619 47.5343 73.3339C45.7515 69.106 44.8657 64.464 44.8767 59.408C44.8878 54.3521 45.794 49.714 47.5952 45.494C49.4604 41.274 52.0605 37.5997 55.3953 34.471C58.7302 31.3423 62.6394 28.9508 67.123 27.2966C71.6068 25.5784 76.5367 24.7252 81.9127 24.737C87.8647 24.75 93.2065 25.7537 97.9381 27.748C102.734 29.7425 106.759 32.6314 110.015 36.4145L100.011 45.6086C97.5847 43.0433 94.9328 41.1495 92.0555 39.9272C89.1783 38.6409 86.0437 37.9941 82.6517 37.9866C79.3877 37.9795 76.4106 38.485 73.7204 39.5031C71.0301 40.5212 68.6909 41.9881 66.7027 43.9038C64.7785 45.8196 63.2696 48.0883 62.1758 50.7099C61.1461 53.3316 60.6277 56.2425 60.6207 59.4425C60.6138 62.5785 61.1195 65.4596 62.1378 68.0858C63.2201 70.7122 64.719 73.0195 66.6347 75.0077C68.6145 76.932 70.9152 78.4091 73.537 79.4388C76.2227 80.4687 79.1656 80.9871 82.3656 80.9941C85.4376 81.0008 88.4146 80.5273 91.2967 79.5736C94.243 78.5561 97.0947 76.8663 99.8519 74.5043L108.659 85.7556C105.005 88.4997 100.745 90.6023 95.8774 92.0637C91.0742 93.5252 86.2726 94.2507 81.4726 94.2402ZM94.4557 83.7086L94.5109 58.4606L108.719 58.4917L108.659 85.7556L94.4557 83.7086Z" fill="black"/>
</svg>
